# xmcd CD database file
#
# Track frame offsets:
#	150
#	29885
#	66364
#	95608
#	113184
#	140516
#	178975
#	198864
#	216694
#	229736
#	252489
#	263200
#
# Disc length: 3803 seconds
#
# Revision: 0
# Processed by: cddbd v1.5.2PL0 Copyright (c) Steve Scherf et al.
# Submitted via: CDex 1.70beta2
#
DISCID=c50ed90c
DTITLE=Cannonball Adderley - Cannonball Adderley and the Poll Winners
DYEAR=1960
DGENRE=Jazz
TTITLE0=The Chant
TTITLE1=Lolita
TTITLE2=Azule Serape
TTITLE3=Au Privave
TTITLE4=Yours Is My Heart Alone
TTITLE5=Never Will I Marry
TTITLE6=Au Privave (alt take)
TTITLE7=Music In The Air
TTITLE8=Pretty Strange
TTITLE9=The Shouter
TTITLE10=Social Call
TTITLE11=Out Of The Past
EXTD=YEAR: 1960
EXTT0=
EXTT1=
EXTT2=
EXTT3=
EXTT4=
EXTT5=
EXTT6=
EXTT7=
EXTT8=
EXTT9=
EXTT10=
EXTT11=
PLAYORDER=
